<mxfile host="app.diagrams.net" agent="Mozilla/5.0 (Macintosh; Intel Mac OS X 10_15_7) AppleWebKit/537.36 (KHTML, like Gecko) Chrome/127.0.0.0 Safari/537.36" version="24.7.6">
  <diagram name="第 1 页" id="V5H9v4VFTSQlkIqhqSir">
    <mxGraphModel dx="1633" dy="876" grid="1" gridSize="10" guides="1" tooltips="1" connect="1" arrows="1" fold="1" page="1" pageScale="1" pageWidth="827" pageHeight="1169" math="0" shadow="0">
      <root>
        <mxCell id="0" />
        <mxCell id="1" parent="0" />
        <mxCell id="Q8DNpA1c7x08gG5244Rf-5" style="edgeStyle=orthogonalEdgeStyle;rounded=0;orthogonalLoop=1;jettySize=auto;html=1;exitX=1;exitY=0.5;exitDx=0;exitDy=0;entryX=0;entryY=0.5;entryDx=0;entryDy=0;" edge="1" parent="1" source="Q8DNpA1c7x08gG5244Rf-1">
          <mxGeometry relative="1" as="geometry">
            <mxPoint x="1020" y="250" as="targetPoint" />
          </mxGeometry>
        </mxCell>
        <mxCell id="Q8DNpA1c7x08gG5244Rf-1" value="正式配置" style="ellipse;whiteSpace=wrap;html=1;aspect=fixed;fillColor=none;" vertex="1" parent="1">
          <mxGeometry x="680" y="210" width="80" height="80" as="geometry" />
        </mxCell>
        <mxCell id="Q8DNpA1c7x08gG5244Rf-4" value="" style="endArrow=classic;html=1;rounded=0;exitX=1;exitY=0.5;exitDx=0;exitDy=0;entryX=0;entryY=0.5;entryDx=0;entryDy=0;" edge="1" parent="1" target="Q8DNpA1c7x08gG5244Rf-1">
          <mxGeometry width="50" height="50" relative="1" as="geometry">
            <mxPoint x="209.99999999998067" y="250" as="sourcePoint" />
            <mxPoint x="310" y="310" as="targetPoint" />
          </mxGeometry>
        </mxCell>
        <mxCell id="Q8DNpA1c7x08gG5244Rf-11" style="edgeStyle=orthogonalEdgeStyle;rounded=0;orthogonalLoop=1;jettySize=auto;html=1;exitX=1;exitY=0.5;exitDx=0;exitDy=0;entryX=0;entryY=0.5;entryDx=0;entryDy=0;" edge="1" parent="1" source="Q8DNpA1c7x08gG5244Rf-6" target="Q8DNpA1c7x08gG5244Rf-9">
          <mxGeometry relative="1" as="geometry" />
        </mxCell>
        <mxCell id="Q8DNpA1c7x08gG5244Rf-6" value="配置变更" style="ellipse;whiteSpace=wrap;html=1;aspect=fixed;fillColor=none;" vertex="1" parent="1">
          <mxGeometry x="250" y="80" width="70" height="70" as="geometry" />
        </mxCell>
        <mxCell id="Q8DNpA1c7x08gG5244Rf-8" value="" style="endArrow=classic;html=1;rounded=0;exitX=1;exitY=0;exitDx=0;exitDy=0;" edge="1" parent="1">
          <mxGeometry width="50" height="50" relative="1" as="geometry">
            <mxPoint x="205.60660171777113" y="239.3933982822291" as="sourcePoint" />
            <mxPoint x="270" y="150" as="targetPoint" />
          </mxGeometry>
        </mxCell>
        <mxCell id="Q8DNpA1c7x08gG5244Rf-12" style="edgeStyle=orthogonalEdgeStyle;rounded=0;orthogonalLoop=1;jettySize=auto;html=1;exitX=1;exitY=0.5;exitDx=0;exitDy=0;entryX=0;entryY=0.5;entryDx=0;entryDy=0;" edge="1" parent="1" source="Q8DNpA1c7x08gG5244Rf-9" target="Q8DNpA1c7x08gG5244Rf-10">
          <mxGeometry relative="1" as="geometry" />
        </mxCell>
        <mxCell id="Q8DNpA1c7x08gG5244Rf-9" value="sop" style="ellipse;whiteSpace=wrap;html=1;aspect=fixed;fillColor=none;" vertex="1" parent="1">
          <mxGeometry x="390" y="80" width="70" height="70" as="geometry" />
        </mxCell>
        <mxCell id="Q8DNpA1c7x08gG5244Rf-10" value="&lt;div class=&quot;lake-content&quot;&gt;&lt;span class=&quot;ne-text&quot;&gt;运费准确性自动化测试&lt;/span&gt;&lt;/div&gt;" style="ellipse;whiteSpace=wrap;html=1;aspect=fixed;fillColor=none;" vertex="1" parent="1">
          <mxGeometry x="540" y="80" width="70" height="70" as="geometry" />
        </mxCell>
        <mxCell id="Q8DNpA1c7x08gG5244Rf-13" value="" style="endArrow=classic;html=1;rounded=0;" edge="1" parent="1" source="Q8DNpA1c7x08gG5244Rf-10">
          <mxGeometry width="50" height="50" relative="1" as="geometry">
            <mxPoint x="216" y="249" as="sourcePoint" />
            <mxPoint x="700" y="200" as="targetPoint" />
          </mxGeometry>
        </mxCell>
        <mxCell id="Q8DNpA1c7x08gG5244Rf-14" value="查价计费" style="ellipse;whiteSpace=wrap;html=1;aspect=fixed;fillColor=none;" vertex="1" parent="1">
          <mxGeometry x="1020" y="210" width="80" height="80" as="geometry" />
        </mxCell>
        <mxCell id="Q8DNpA1c7x08gG5244Rf-15" value="" style="shape=umlActor;verticalLabelPosition=bottom;verticalAlign=top;html=1;outlineConnect=0;" vertex="1" parent="1">
          <mxGeometry x="160" y="220" width="30" height="60" as="geometry" />
        </mxCell>
      </root>
    </mxGraphModel>
  </diagram>
</mxfile>
